<svg id="icons" xmlns="http://www.w3.org/2000/svg" viewBox="0 0 151.4 154.41"><defs><style>.cls-1{fill:#75c266;}.cls-2{fill:#2b8a68;}.cls-3{fill:#b9224b;}.cls-10,.cls-4,.cls-5,.cls-6,.cls-7,.cls-8{fill:none;stroke-miterlimit:10;}.cls-4{stroke:#313537;}.cls-5{stroke:#dbdcd5;}.cls-5,.cls-8{stroke-width:2px;}.cls-6,.cls-7{stroke:#2b8a68;}.cls-6{stroke-width:2.4px;}.cls-10,.cls-7,.cls-8{stroke-linecap:round;}.cls-10,.cls-7{stroke-width:1.4px;}.cls-10,.cls-8{stroke:#f0b638;}.cls-9{fill:#f0b638;}</style></defs><title>logo_book</title><path class="cls-1" d="M16.51,21.9c1.34-1.34,8.85-3.76,16.15-4.93,7.85-1.24,23.19-1.11,28-1.24,8.79-.24,13.82-4.27,14.5-4s1.59,5.24,2.85,10.69c1.42,6.18,5.94,18.29,7.84,24.23s6.42,18.33,7.6,20.67c1.59,3.16,3.8,9.27,3.7,9.85-.16.86-6.41,4.78-11.78,6.31a123.32,123.32,0,0,1-17.58,2.85c-3.8.24-11.56,1.09-16.39,1.9C48,88.78,40.76,93,39.79,93s-1.19,1.72-1.19,3.14c0,2.36-7.59-15-8.55-20.13-1.07-5.71-6-17.58-6.77-19.61-2.32-5.88-6.77-21.56-8.2-27.08C14.76,28,16,22.39,16.51,21.9Z" transform="translate(20.7 22.04)"/><path class="cls-2" d="M18.82,42.46s1.9-2.45,2.68-3.75c.53-.89,6.34-3.18,13.72-4.81,8.91-2,20.44-1.77,27.38-2.73,11.17-1.55,16.46-3.68,16.46-3.68s-.89-4.1-1.61-7.13c-.64-2.74-1.3-9-2.25-8.67A56,56,0,0,1,66.05,15c-4.64,1.07-16.75.89-21.92,1.07s-12.43.71-17.82,2.14C20.25,19.82,16.45,21.59,16,23a26.89,26.89,0,0,0-.89,6.06C15.26,30.69,18.82,42.46,18.82,42.46Z" transform="translate(20.7 22.04)"/><path class="cls-3" d="M20.07,35a30.08,30.08,0,0,1,9.45-3.92c6.06-1.43,16.83-2.61,17.46-3s-3.21-11.94-3.21-11.94a81.4,81.4,0,0,0-13.18,1.25c-6.42,1.42-14.08,3.47-14.08,5C16.51,23.21,20.07,35,20.07,35Z" transform="translate(20.7 22.04)"/><path class="cls-4" d="M16.51,21.9c1.34-1.34,8.85-3.76,16.15-4.93,7.85-1.24,23.19-1.11,28-1.24,8.79-.24,13.82-4.27,14.5-4s1.59,5.24,2.85,10.69c1.42,6.18,5.94,18.29,7.84,24.23s6.42,18.33,7.6,20.67c1.59,3.16,3.8,9.27,3.7,9.85-.16.86-6.41,4.78-11.78,6.31a123.32,123.32,0,0,1-17.58,2.85,131.22,131.22,0,0,0-16.39,1.9c-6.78,1.49-11.59,5.41-11.77,4.7-.53-2.16-4.81-12.3-6.77-19.88-1.32-5.13-5.19-15.87-6.65-19.51S21.5,40.44,20.07,35C18.87,30.36,16,22.39,16.51,21.9Z" transform="translate(20.7 22.04)"/><path class="cls-4" d="M16.51,21.9c-1,1.19-1.67,5-1.43,7.13s3.33,12.12,4.28,15.21,4.28,13.54,5.46,16.15a160.37,160.37,0,0,1,5.23,15.92c1.43,6.06,7.84,20.44,8.55,20.91.89.59,8.08-1.66,13.79-3.09,5.38-1.34,11.16-1.66,18-2.14a75.48,75.48,0,0,0,16.87-3.32c3.57-1.19,9.24-3.7,9.51-4.52S95.27,81,95.27,78.81" transform="translate(20.7 22.04)"/><path class="cls-4" d="M39.32,97.22c-1.07-2.61.24-4,.24-4" transform="translate(20.7 22.04)"/><path class="cls-4" d="M39.08,95.08c4.28-.47,7.31-2.49,12.59-3.92,4.4-1.18,11.76-1.78,17.47-2a85.76,85.76,0,0,0,16-2.61c7.49-1.78,10.7-4.75,10.7-4.75" transform="translate(20.7 22.04)"/><path class="cls-5" d="M22.21,26.18c2.73-.95,4.1-2.08,7.13-2.61,4.17-.74,7.36-.84,9.74-1.43" transform="translate(20.7 22.04)"/><path class="cls-5" d="M50.13,20.48A58.85,58.85,0,0,1,56.54,20a62.91,62.91,0,0,0,7.73-.71A52.69,52.69,0,0,0,72.58,17" transform="translate(20.7 22.04)"/><path class="cls-5" d="M51.08,24.64a53.85,53.85,0,0,1,6.41-.6c2-.08,5.3-.53,7.73-.83A35.49,35.49,0,0,0,73.53,21" transform="translate(20.7 22.04)"/><path class="cls-5" d="M60,28c2-.27,5.23-.58,6.65-.83A51.45,51.45,0,0,0,74.72,25" transform="translate(20.7 22.04)"/><path class="cls-6" d="M26.61,42.69c1.66-.59,2.25-1.07,4.27-1.66,2.63-.77,5.82-1.43,5.82-1.43" transform="translate(20.7 22.04)"/><path class="cls-6" d="M40.15,38.89a24.08,24.08,0,0,1,6.65-1.42c3.21-.12,9-.24,11.05-.84" transform="translate(20.7 22.04)"/><path class="cls-6" d="M28.74,48.4c2.14-.84,3.81-1.31,4.76-1.67" transform="translate(20.7 22.04)"/><path class="cls-6" d="M36.7,45.78c1.55-.35,5.59-1.31,6.89-1.66" transform="translate(20.7 22.04)"/><path class="cls-6" d="M47.4,43.29c1-.12,3.61,0,5.7-.24a25,25,0,0,0,5.82-1.19" transform="translate(20.7 22.04)"/><path class="cls-6" d="M30.88,54.22C33.73,53.27,37,52,40.15,51c4.28-1.31,8.2-.71,11.29-1.66" transform="translate(20.7 22.04)"/><path class="cls-7" d="M84.49,72.66S77.24,75.6,75.22,76c-2.78.49-10.84-.36-13.69.35s-12.35,4.76-12.35,4.76" transform="translate(20.7 22.04)"/><path class="cls-8" d="M49.3,80.71c.4-1,8.79-23.29,9.14-23.76s7.85,0,8.32-.24,4.63-13.19,4.63-13.19" transform="translate(20.7 22.04)"/><path class="cls-9" d="M65.93,46.55c-.26-1.17,6.65-8.79,7.42-8.55s1.19,10.28.6,11c-.39.51-2.79-1.25-3.86-1.66S66.05,47.09,65.93,46.55Z" transform="translate(20.7 22.04)"/><path class="cls-2" d="M77.85,71.31c.64-1,10.91-1.61,11.29-.9s-6.35,8.16-7.31,8.3c-.64.09-1.12-2.85-1.59-3.9S77.56,71.77,77.85,71.31Z" transform="translate(20.7 22.04)"/><path class="cls-10" d="M69.73-3.76c1-5,2.85-11.4,3.33-17.11" transform="translate(20.7 22.04)"/><path class="cls-10" d="M106-8.57c-3.53,3.65-8.64,8-12.17,12.47" transform="translate(20.7 22.04)"/><path class="cls-10" d="M109,30.91c4.69-1.95,11.1-3.88,16.13-6.61" transform="translate(20.7 22.04)"/><path class="cls-10" d="M10.16,6.87C6,4,.82-.28-4.23-3" transform="translate(20.7 22.04)"/><path class="cls-10" d="M-2.58,39.36c-5.08-.19-11.71-1.09-17.42-.7" transform="translate(20.7 22.04)"/><path class="cls-10" d="M22.62,128.39c1.82-4.74,4.83-10.72,6.31-16.24" transform="translate(20.7 22.04)"/><path class="cls-10" d="M86.31,107.46c3,4.13,6.29,9.93,10.09,14.21" transform="translate(20.7 22.04)"/><path class="cls-10" d="M57.14,131.67c.21-5.07.76-11.54.4-17.25" transform="translate(20.7 22.04)"/><path class="cls-10" d="M7.74,95.62C4.14,99.2-1,103.42-4.67,107.85" transform="translate(20.7 22.04)"/><path class="cls-10" d="M123.31,97.22c-4.51-2.34-10.12-6-15.45-8.07" transform="translate(20.7 22.04)"/><path class="cls-10" d="M112.58,60.22c5.08.08,11.72.85,17.42.34" transform="translate(20.7 22.04)"/><path class="cls-10" d="M35-21.34c1.43,3.56,2.85,13.54,3.8,16.87" transform="translate(20.7 22.04)"/><path class="cls-10" d="M-18.28,75.44c3.39-1.81,13.15-4.31,16.35-5.62" transform="translate(20.7 22.04)"/></svg>